# xmcd CD database file
#
# Track frame offsets:
#	150
#	27149
#	55858
#	74794
#	96873
#	139818
#	161702
#	186047
#
# Disc length: 2817 seconds
#
# Revision: 0
# Processed by: cddbd v1.5.1PL2 Copyright (c) Steve Scherf et al.
# Submitted via: CDex 1.51
#
DISCID=700aff08
DTITLE=Griff Hamlin - Life In Poland - 2004
DYEAR=2005
DGENRE=Blues
TTITLE0=G String Shuffle
TTITLE1=Texas Flood
TTITLE2=Got To End
TTITLE3=Running On
TTITLE4=Me and My Guitart
TTITLE5=Don't Lie
TTITLE6=Help The Poor
TTITLE7=Sweet Home Chicago
EXTD=YEAR: 2005
EXTT0=
EXTT1=
EXTT2=
EXTT3=
EXTT4=
EXTT5=
EXTT6=
EXTT7=
PLAYORDER=
